<svg width="1920" height="1159" viewBox="0 0 1920 1159" fill="none" xmlns="http://www.w3.org/2000/svg">
<path d="M635.135 1158.9C626.692 1155.3 617.518 1154.66 608.752 1153.47C573.325 1148.65 538.38 1137.56 502.327 1140.56C481.085 1142.31 459.98 1146.22 438.746 1148.22C429.328 1149.1 424.118 1141.66 420.606 1132.08C417.004 1122.26 414.202 1108.97 402.038 1111.33C386.666 1114.3 382.338 1129.06 380.779 1144.96C380.553 1147.25 380.179 1149.54 379.874 1151.83C378.152 1150.47 376.207 1149.39 374.746 1147.74C351.909 1121.9 353.918 1086.19 385.335 1070.84C432.932 1047.6 459.221 1003.92 485.426 957.704C496.01 939.032 510.658 923.359 531.801 934.968C553.645 946.954 549.553 971.757 545.53 992.125C534.755 1046.63 548.113 1100.8 578.481 1115.63C605.87 1129.01 635.676 1130.93 664.122 1139.29C677.708 1143.29 690.624 1149.01 701.675 1158.9H755.167C739.501 1149.13 723.926 1139.13 707.903 1130.22C681.879 1115.76 653.294 1111.63 625.405 1104.42C583.038 1093.46 563.747 1044.11 572.2 989.795C583.299 918.469 627.475 879.928 672.404 840.336C711.774 805.659 746.851 767.369 746.148 704.148C745.706 664.299 730.563 631.242 706.61 603.527C670.543 561.775 675.135 515.891 693.502 467.015C711.789 418.375 725.284 368.762 708.574 314.957C701.934 293.576 686.847 283.045 672.438 270.869C647.34 249.646 646.641 229.228 674.114 212.474C707.809 191.934 723.204 161.294 730.039 119.431C738.566 67.1878 776.618 50.5949 821.042 75.1646C852.284 92.4378 877.557 121.136 910.231 135.416C930.342 144.205 950.264 144.097 969.992 135.416V101.34C911.247 133.635 870.188 91.8714 828.573 52.8986C803.313 29.2487 775.858 18.7084 742.785 27.0793C731.634 29.8998 711.543 33.967 711.434 12.901C711.32 -8.0248 728.642 -6.55033 742.186 -8.99708H670.53C672.41 26.6734 686.4 59.1673 691.416 94.0407C698.378 142.453 676.832 174.982 646.268 202.442C635.854 211.785 625.247 221.058 613.906 228.767C601.831 236.977 586.007 246.183 577.584 227.149C568.882 207.514 586.144 198.877 598.107 191.449C621.191 177.119 650.02 172.045 657.584 135.317C665.204 98.3327 653.418 64.3674 647.284 29.418C645.044 16.7113 643.606 3.82352 641.889 -9H614.457C618.283 4.36367 622.184 17.7011 625.849 31.1231C635.552 66.6477 648.605 103.013 622.928 136.462C605.743 158.85 580.538 171.829 565.298 196.719C544.41 230.822 522.703 263.272 487.397 279.471C479.218 283.22 467.585 287.004 468.235 299.419C468.947 312.876 480.633 318.444 489.937 324.309C518.558 342.345 551.067 336.864 581.493 344.003C597.076 347.661 613.271 352.368 618.971 372.202C623.319 387.329 615.042 399.726 605.148 407.437C585.617 422.692 565.372 436.7 544.504 449.4C494.11 479.978 449.409 517.337 424.312 578.613C417.588 595.028 412.203 613.113 421.238 630.757C426.194 640.433 435.386 644.091 445.129 642.597C463.046 639.852 477.494 628.103 492.238 617.297C522.843 594.868 552.672 567.933 590.028 565.364C629.905 562.622 659.519 594.611 691.34 616.395C718.299 634.853 734.685 663.517 729.577 701.216C720.164 770.671 682.557 818.324 633.517 855.402C618.001 867.134 600.081 877.943 581.377 866.562C564.133 856.05 566.563 835.11 569.906 817.559C577.053 780.014 564.994 757.684 536.79 737.226C500.582 710.948 499.884 688.892 529.355 659.219C550.729 637.7 575.583 615.256 605.125 621.227C650.429 630.383 673.987 670.968 674.589 727.351C674.668 734.607 673.271 744.312 681.531 747.523C684.144 748.542 689.239 745.71 691.406 742.852C700.042 731.424 703.456 717.368 704.33 702.486C706.77 660.974 681.559 642.305 655.021 626.123C634.234 613.449 615.397 591.72 589.454 596.634C555.179 603.142 531.733 634.851 501.255 650.836C474.697 664.769 470.885 684.016 489.35 710.209C497.674 722.017 507.979 732.574 518.837 741.316C561.001 775.27 565.946 799.019 538.212 842.453C523.843 864.953 505.207 885.122 495.426 909.961C473.006 966.896 441.992 1008.86 388.747 1031.03C331.909 1054.7 315.646 1114.81 349.207 1158.9H635.135ZM470.316 604.146C462.874 612.585 450.25 624.521 442.051 612.205C430.275 594.511 445.896 580.114 455.414 568.324C495.921 518.131 547.404 484.13 595.303 444.784C614.236 429.233 631.846 410.489 637.436 383.096C642.565 357.986 624.622 349.837 609.624 340.403C605.153 337.591 597.549 336.739 598.339 329.798C598.623 327.279 608.029 324.692 613.304 324.598C642.029 324.09 660.403 344.015 660.403 384.079C657.863 422.649 631.384 453.692 600.299 478.189C553.183 515.31 510.813 558.222 470.316 604.146ZM550.297 557.279C548.855 557.796 547.303 557.915 545.801 558.219C546.335 556.379 546.551 554.298 547.452 552.741C566.662 519.518 598.346 503.777 624.886 481.126C664.561 447.257 688.251 382.377 671.34 344.059C658.676 315.36 637.287 303.474 606.063 303.527C590.315 303.316 571.973 310.826 553.348 316.919C545.441 319.512 534.839 324.96 530.409 314.362C526.091 304.029 536.05 297.848 543.089 293.538C598.044 259.885 682.239 268.811 699.552 350.92C709.839 399.735 690.593 440.582 664.82 476.854C635.046 518.718 594.308 541.46 550.297 557.264V557.279Z" fill="#FFCA1A" fill-opacity="0.1"/>
<path d="M584.678 -9H564.038C576.959 9.00898 586.997 28.5392 589.605 52.6358C592.857 82.642 587.203 110.327 568.234 130.757C534.556 167.026 513.259 216.136 475.563 247.803C447.346 271.506 416.98 265.348 388.413 250.107C354.464 232.004 322.29 235.33 289.689 252.618C287.657 253.695 285.295 253.949 283.085 254.589C283.677 251.961 283.954 249.176 284.909 246.738C296.255 217.718 340.789 206.34 374.796 223.12C408.875 239.929 442.982 261.83 478.88 227.791C503.368 204.565 517.653 172.077 536.677 143.881C551.137 122.447 571.221 104.382 572.27 74.6536C573.68 35.1524 555.252 9.47614 527.886 -8.98832H390.511C403.491 -3.83497 416.419 1.52276 429.604 5.82354C454.577 13.9988 479.388 1.25122 504.341 3.82352C528.707 6.34034 546.723 21.2544 558.43 45.5C565.618 60.3906 565.392 75.8419 556.667 90.5487C553.243 96.321 548.793 99.8919 542.951 98.8758C535.994 97.6758 533.147 90.9925 531.623 83.8888C521.313 35.713 509.271 25.5698 467.701 38.8196C440.551 47.4708 420.425 31.1786 398.545 20.9391C350.994 -1.32107 304.015 33.5378 303.804 92.2392C303.75 106.4 302.95 120.596 301.797 134.698C300.995 144.526 299.328 155.817 287.596 153.916C276.87 152.164 272.915 140.777 273.245 130.485C275.072 73.5616 284.569 7.43232 342.671 -9H299.509C269.514 34.6151 256.679 84.6625 261.386 140.033C263.144 160.728 273.07 180.091 294.317 176.503C317.334 172.614 314.294 147.335 316.732 128.327C321.142 93.9152 316.877 55.0242 350.735 35.7334C373.087 22.9946 394.438 31.745 412.589 47.7365C428.243 61.5264 443.3 66.6652 463.584 64.2155C508.415 58.7994 524.483 84.4114 513.622 138.631C503.698 188.141 468.738 230.729 437.892 229.966C414.865 229.383 397.961 210.775 377.862 201.534C338.678 183.513 307.111 203.02 277.396 230.148C232.255 271.357 183.924 304.543 124.783 310.47C119.294 311.019 112.769 310.084 111.517 303.1C110.117 295.287 116.909 293.109 121.931 291.074C149.502 279.868 178.395 272.855 204.15 255.914C242.702 230.55 247.012 191.878 240.51 145.6C232.839 91.0246 243.601 39.1174 267.452 -9H244.759C226.471 43.4474 229.179 99.0306 226.896 153.945C225.57 185.91 219.563 216.612 199.35 240.46C157.552 289.777 94.7149 287.704 48.2865 236.971C41.9721 230.072 33.6663 216.139 24.4106 225.055C15.0381 234.077 24.3929 245.552 30.0977 254.612C33.9915 260.802 37.8421 267.111 42.3455 272.691C66.262 302.303 87.6715 337.004 129.315 332.368C154.592 329.553 174.323 311.562 196.116 299.395C243.306 273.062 290.918 307.033 290.918 367.501C290.918 442.282 224.279 495.012 157.102 478.86C110.62 467.68 69.442 440.267 23.3007 429.157C-2.67575 422.903 -33.948 443.312 -40.4123 473.158C-45.8377 498.16 -30.7019 519.313 -2.86625 527.941C36.6203 540.204 73.4298 557.43 99.4342 597.212C126.775 639.052 136.543 640.483 175.187 609.56C207.29 583.866 240.286 572.187 278.996 588.424C314.396 603.27 329.097 592.362 329.435 549.121C329.869 493.619 352.117 457.972 396.188 438.311C434.097 421.4 453.947 380.263 444.43 335.746C439.35 312 422.789 302.7 403.452 307.769C386.196 312.289 392.531 330.044 394.946 343.045C401.517 378.342 399.218 409.878 371.027 432.784C353.189 447.277 336.318 462.907 327.847 487.354C321.401 505.982 314.533 524.528 302.3 539.237C275.308 571.699 238.836 566.239 204.95 570.163C132.741 578.523 73.0564 539.232 13.1814 501.549C1.5203 494.209 -12.4141 483.698 -3.07453 465.993C5.77985 449.201 21.2128 454.834 33.3412 463.204C73.7727 491.103 113.043 520.478 160.884 531.234C201.755 540.414 243.141 528.823 262.11 499.062C298.61 441.803 308.084 377.017 306.105 308.029C304.896 265.716 326.057 246.615 360.969 260.075C416.892 281.631 467.902 280.139 510.157 226.378C532.042 198.547 549.146 165.674 575.902 142.999C599.283 123.183 610.177 97.8831 605.62 63.9469C602.183 38.1247 592.879 14.8251 584.678 -9Z" fill="#FFCA1A" fill-opacity="0.1"/>
<path d="M867.785 1093.55C818.509 1043.19 792.466 992.008 833.149 923.35C855.13 886.27 904.302 873.607 952.673 892.369C958.337 894.565 964.182 896.141 969.993 897.835V835.504C946.252 840.523 922.42 845.057 898.828 850.879C836.797 866.19 789.284 918.617 784.303 988.16C780.208 1045.32 813.177 1082.4 852.585 1111.89C863.576 1120.12 879.461 1128.39 872.943 1148.42C870.911 1154.68 867.152 1157.69 862.707 1158.89H896.392C902.023 1129.33 884.559 1110.69 867.785 1093.55Z" fill="#FFCA1A" fill-opacity="0.1"/>
<path d="M655.899 1065.2C704.54 1084.51 744.799 1121.81 790.904 1146.37C799.119 1150.75 807.447 1154.83 815.776 1158.92H850.134C848.356 1158.63 846.621 1158.24 844.953 1157.86C803.462 1148.48 770.595 1122.54 741.616 1087.76C695.134 1031.99 705.231 909.599 760.122 865.508C790.615 841.014 820.259 815.034 849.347 788.368C857.919 780.508 865.89 764.718 855.824 754.995C845.387 744.928 841.018 762.663 834.805 769.974C823.485 783.297 813.172 798.43 800.114 808.999C749.693 849.797 704.263 894.305 691.787 969.001C689.584 982.193 684.583 995.904 669.983 991.428C658.678 987.962 658.028 974.718 660.077 963.311C671.253 900.886 707.349 858.868 748.418 820.763C771.834 799.014 800.323 782.336 811.499 747.214C820.731 718.251 807.602 690.063 806.434 661.33C805.469 637.563 809.444 611.289 795.959 591.192C785.911 576.211 768.342 567.767 758.766 552.54C733.054 511.664 741.839 465.564 751.499 421.908C762.134 373.84 771.618 326.961 761.601 276.887C752.251 230.127 752.825 183.242 771.519 138.71C774.773 130.964 779.848 123.761 788.329 125.825C797.097 127.96 798.235 136.92 798.197 145.7C798.044 181.832 788.618 217.041 791.847 253.731C794.879 288.184 814.897 313.548 837.716 307.311C877.371 296.476 921.132 320.222 935.252 363.817C949.272 407.079 941.444 454.329 949.966 498.916C953.982 519.938 956.682 541.545 969.983 557.854V489.24C962.617 466.174 960.839 441.695 960.403 417.622C959.051 341.817 929.199 292.908 865.488 269.883C824.709 255.153 810.851 223.637 813.391 160.138C814.293 137.557 820.757 110.92 794.283 104.634C769.812 98.8236 763.269 124.941 756.033 144.944C745.809 173.207 730.29 196.565 712.218 218.834C693.89 241.418 713.216 257.842 723.374 274.324C757.054 328.961 752.025 388.194 729.952 442.697C704.456 505.649 715.452 552.409 755.04 600.81C795.126 649.82 800.145 726.63 769.825 773.536C746.152 810.161 709.236 831.107 681.632 863.423C648.757 901.911 610.06 937.115 604.04 995.317C599.75 1036.94 627.291 1053.84 655.899 1065.2Z" fill="#FFCA1A" fill-opacity="0.1"/>
<path d="M580.088 379.994C579.58 376.987 574.708 373.571 571.399 372.812C543.611 366.534 514.694 367.644 487.899 354.482C478.364 349.795 473.554 357.825 472.789 367.658C469.078 415.423 450.668 449.543 409.422 465.914C385.332 475.473 361.39 489.391 355.726 521.389C351.766 543.766 353.275 567.492 352.909 590.628C352.44 620.173 339.046 634.237 314.279 628.745C292.369 623.884 270.914 614.012 248.922 612.394C201.643 608.891 172.85 645.747 146.449 683.481C133.942 701.356 136.096 721.479 151.938 737.085C162.403 747.395 173.602 743.64 183.543 735.479C195.41 725.739 205.443 711.666 218.43 705.333C285.925 672.404 351.462 688.168 411.674 727.482C465.299 762.49 476.985 810.143 452.568 857.151C429.962 900.655 391.101 913.21 353.047 927.89C302.161 947.508 257.528 974.919 243.766 1042.4C236.339 1078.81 220.398 1109.44 185.044 1115.77C153.094 1121.5 132.858 1097.14 112.845 1073.12C95.924 1052.82 80.2294 1029.95 56.2926 1019.85C14.5125 1002.24 -16.5058 1026.28 -46.0001 1055.06V1097C-37.255 1082.32 -29.2032 1066.98 -16.0283 1056.54C22.9985 1025.59 56.3358 1032.92 85.7946 1076.87C105.766 1106.68 127.222 1135.17 152.85 1158.92H248.734C234.528 1090.2 261.277 1037.16 302.026 990.887C328.045 961.339 364.126 950.472 395.65 931.117C437.455 905.449 472.715 872.485 482.05 815.063C488.895 772.954 462.916 752.457 438.258 731.211C420.409 715.832 397.618 705.126 393.681 675.224C393.056 670.471 395.304 665.216 396.221 660.194C398.281 661.329 400.88 661.907 402.297 663.697C405.535 667.82 408.035 672.699 411.118 676.997C430.582 704.127 455.489 724.174 478.997 746.057C511.138 775.973 510.15 812.143 484.478 864.126C450.882 932.156 394.982 965.999 339.206 1001.1C298.201 1026.91 260.035 1099.71 282.565 1158.9H314.398C285.719 1090.26 317.621 1017.99 376.549 994.983C402.482 984.858 431.027 979.801 448.786 951.368C469.467 918.276 480.622 878.374 505.471 848.132C517.236 833.825 529.809 818.523 527.772 796.549C525.08 767.515 502.951 755.769 486.52 739.351C456.124 708.985 419.15 683.838 406.399 637.23C389.213 574.411 418.309 526.443 452.708 482.591C485.22 441.131 531.127 423.32 571.371 395.527C576.296 392.129 581.328 387.224 580.088 379.994ZM414.898 516.554C398.271 551.15 392.383 588.85 387.362 627.428C381.411 673.157 351.876 694.48 312.686 675.975C260.751 651.449 217.549 658.223 178.938 705.172C174.572 710.483 165.476 718.238 161.699 710.545C155.169 697.248 165.304 685.978 172.53 676.384C209.377 627.443 252.763 619.381 304.34 644.795C324.152 654.556 351.784 668.153 363.89 630.605C370.075 611.425 369.445 589.334 371.896 568.557C372.94 543.702 371.583 517.634 389.013 498.448C396.396 490.32 406.348 482.442 415.86 489.508C425.197 496.428 418.995 508.022 414.898 516.554Z" fill="#FFCA1A" fill-opacity="0.1"/>
<path d="M430.143 812.119C423.323 804.569 414.453 824.887 407.351 833.623C392.068 852.42 374.37 863.294 352.31 852.788C331.624 842.94 311.538 837.138 289.621 846.87C244.505 866.899 205.86 902.891 156.35 912.967C114.014 921.583 65.4188 894.815 52.2541 847.787C41.9265 810.922 50.3364 771.581 42.2999 734.209C29.4501 674.482 5.30756 624.876 -46.0001 599.182V626.92C-7.22727 648.789 10.3875 689.344 20.1411 734.425C33.3287 795.401 40.9258 857.988 23.7123 919.335C13.151 956.974 -14.6212 976.518 -46.0001 988.825V1012.74C26.0592 950.918 82.8583 971.231 136.236 1041.94C164.43 1079.28 193.79 1079.42 209.611 1033.6C233.279 965.038 269.954 915.224 333.324 894.357C363.664 884.368 397.776 883.723 420.76 853.305C429.767 841.384 440.971 824.108 430.143 812.119ZM315.714 881.002C274.058 906.164 241.699 946.424 201.415 973.689C187.043 983.418 171.189 988.209 152.393 988.323C125.296 987.129 99.1955 975.207 75.3044 956.763C70.1991 952.822 63.1125 946.898 67.2552 937.89C72.7187 925.992 82.8558 927.315 91.4943 931.391C155.797 961.73 206.302 926.719 256.339 886.911C273.197 873.48 290.68 859.977 313.093 862.108C317.84 862.561 322.153 865.054 322.122 869.463C322.089 873.416 318.884 879.089 315.714 881.002Z" fill="#FFCA1A" fill-opacity="0.1"/>
<path d="M384.387 743.783C335.787 719.944 284.426 728.554 233.924 733.065C223.642 733.982 212.842 744.922 214.859 759.185C216.195 768.627 227.305 767.17 233.822 765.354C270.398 755.159 307.228 748.817 344.761 755.646C355.886 757.67 373.013 756.163 372.975 774.376C372.935 793.337 356.699 791.895 345.053 790.712C310.616 787.209 276.674 782.89 242.593 796.464C171.125 824.929 129.101 803.907 111.344 719.383C90.3691 619.545 37.2402 567.556 -46.0001 549.039V564.967C-45.4351 565.06 -44.8773 565.204 -44.3314 565.396C25.8306 591.089 81.8449 686.367 85.4034 784.239C86.5439 815.536 91.6645 846.818 117.885 864.065C147.882 883.797 175.989 868.889 201.305 850.395C248.206 816.138 293.73 783.664 353.438 811.7C369.62 819.291 390.494 810.502 399.236 788.771C406.762 770.061 399.417 751.156 384.387 743.783Z" fill="#FFCA1A" fill-opacity="0.1"/>
<path d="M255.819 329.53C243.03 308.111 216.218 305.477 192.875 324.517C173.825 340.044 157.933 361.539 132.271 363.457C92.0201 366.465 66.2976 337.912 40.8318 308.397C6.20163 268.271 -3.91513 265.882 -46.0001 290.616V329.69C-6.08427 306.916 23.5954 336.114 55.3935 357.469C111.873 395.356 148.278 390.845 203.403 341.913C211.102 335.077 221.569 325.521 229.481 335.889C239.057 348.444 230.878 362.713 222.397 372.304C184.348 415.332 138.111 416.436 89.381 405.735C56.6737 398.553 30.5423 373.23 -1.34975 364.275C-17.7301 359.656 -32.0607 366.062 -46.0001 374.465V410.36C-30.4326 395.782 -13.0642 383.91 7.35478 391.11C39.9733 402.614 71.0068 420.308 103.821 430.79C149.307 445.324 195.738 456.483 239.202 420.965C263.624 401.017 272.039 356.698 255.819 329.53Z" fill="#FFCA1A" fill-opacity="0.1"/>
<path d="M969.994 603.124C963.494 594.984 956.621 587.118 951.533 577.942C924.747 529.623 923.957 473.862 919.199 419.484C914.881 369.995 878.859 335.62 837.158 342.736C801.712 348.783 775.533 389.253 774.021 437.779C773.059 468.755 767.29 500.215 784.369 528.081C793.567 543.092 813.041 543.509 821.103 560.242C832.807 584.532 825.53 611.13 827.018 636.646C828.974 670.118 836.947 699.978 862.41 719.657C899.946 748.668 925.039 744.808 969.984 702.796L969.994 603.124ZM927.068 721.12C899.636 729.637 878.504 715.666 862.286 691.184C847.856 669.4 845.41 643.364 845.205 616.926C845.105 587.013 852.791 554.274 828.441 531.702C814.588 518.855 794.641 516.09 788.428 491.252C775.805 440.79 799.35 379.799 838.032 367.536C868.323 357.933 896.362 386.079 906.179 434.576C916.413 485.138 911.661 539.585 935.178 586.61C946.512 609.271 962.087 629.782 962.849 657.543C963.675 687.861 954.721 712.533 927.068 721.12Z" fill="#FFCA1A" fill-opacity="0.1"/>
<path d="M161.38 -9H118.591C110.387 8.74913 101.268 26.0661 94.6821 44.5773C83.4782 76.0639 91.9745 101.279 116.582 120.024C125.98 127.186 137.524 133.454 137.755 149.066C137.814 152.95 133.93 159.388 130.796 160.433C116.318 165.274 104.509 156.929 94.8701 146.065C55.927 102.152 49.5796 47.7861 76.2063 -6.87151C76.5334 -7.55909 76.8218 -8.27004 77.0699 -9H57.7863C38.4443 38.6853 47.8143 115.863 78.8809 154.187C94.2071 173.102 112.34 188.331 136.165 176.818C156.589 166.953 157.697 143.971 156.853 122.625C155.106 78.5194 152.52 34.5042 161.38 -9Z" fill="#FFCA1A" fill-opacity="0.1"/>
<path d="M969.994 174.001C937.579 193.288 910.719 176.818 883.277 155.066C871.91 146.056 856.721 119.104 842.759 145.799C831.895 166.561 837.757 193.017 852.809 212.889C872.482 238.86 902.121 245.695 926.7 262.294C943.37 273.555 957.18 288.218 969.994 304.338V174.001Z" fill="#FFCA1A" fill-opacity="0.1"/>
<path d="M214.999 -9H195.044C193.98 -5.45543 192.885 -1.92254 192.088 1.69795C181.11 51.6957 190.056 103.244 183.155 153.606C178.435 188.016 155.616 220.626 128.383 226.11C103.689 231.073 82.6831 219.219 69.2618 195.765C33.6894 133.592 16.6181 65.7455 25.8434 -9H4.79959C4.08331 -4.78973 3.18924 -0.564857 3.4534 3.5549C8.24635 78.1602 27.789 149.174 61.7384 211.076C89.2261 261.214 139.165 276.291 179.297 220.156C205.639 183.309 208.895 139.615 209.218 94.4787C209.464 59.906 205.364 24.834 214.999 -9Z" fill="#FFCA1A" fill-opacity="0.1"/>
<path d="M792.766 1093.31C742.147 1022.01 745.848 944.635 801.776 879.139C848.257 824.71 909.814 812.277 969.994 795.544V745.295C908.78 768.026 861.046 817.101 808.486 856.619C719.633 923.429 718.007 1049.51 804.618 1117.22C807.468 1119.45 810.699 1121.02 813.762 1122.92C811.776 1119.97 809.848 1116.96 807.788 1114.07C802.802 1107.12 797.717 1100.28 792.766 1093.31Z" fill="#FFCA1A" fill-opacity="0.1"/>
<path d="M872.204 1049.65C902.755 1077.58 930.116 1108.9 925.668 1158.9H953.39C946.928 1106.62 921.091 1068.47 885.318 1036.68C867.03 1020.42 854.991 998.396 861.907 970.399C868.823 942.402 887.485 931.041 912.039 932.442C934.368 933.718 951.375 949.616 970.004 961.038V932.956C959.775 928.67 949.349 924.848 939.603 919.414C906.075 900.711 868.422 910.538 851.308 943.269C833.088 978.075 843.248 1023.18 872.204 1049.65Z" fill="#FFCA1A" fill-opacity="0.1"/>
<path d="M-6.73958 747.044C-11.6926 716.769 -21.9109 688.527 -46.0001 670.982V712.028C-25.6802 742.863 -23.2393 779.45 -22.7491 816.467C-22.4113 842.041 -28.9594 864.564 -46.0001 881.577V943.94C-30.8771 937.371 -20.7628 924.028 -13.8287 907.978C8.74162 855.729 2.09448 801.051 -6.73958 747.044Z" fill="#FFCA1A" fill-opacity="0.1"/>
<path d="M8.9678 127.414C-0.511421 81.9123 -23.5364 40.0169 -19.9423 -8.99976H-35.0958C-39.142 24.9248 -25.9341 54.7762 -16.9172 85.5241C-1.72807 137.315 -11.5832 182.296 -46 216.095V251.369C-8.77653 242.133 19.3665 177.338 8.9678 127.414Z" fill="#FFCA1A" fill-opacity="0.1"/>
<path d="M-11.568 1158.9C-5.086 1128.24 9.04139 1105.03 40.019 1106.59C67.0978 1107.95 78.8808 1137.51 96.1527 1156.44C96.8588 1157.22 97.5192 1158.05 98.1618 1158.9H116.196C108.273 1147.51 100.524 1135.97 92.0659 1125.15C74.5755 1102.84 60.7402 1073.2 31.0885 1070.72C-8.3829 1067.42 -25.2306 1113.69 -34.5117 1158.9H-11.568Z" fill="#FFCA1A" fill-opacity="0.1"/>
<path d="M969.994 14.6879C957.345 24.5712 946.118 37.1028 930.599 41.6401C897.566 51.3015 873.749 32.0049 851.016 8.77541C845.052 2.67898 838.865 -3.12839 832.728 -9H779.952C804.189 -4.67002 824.295 10.6645 843.647 27.8501C881.91 61.8213 920.408 93.8188 969.994 59.4155V14.6879Z" fill="#FFCA1A" fill-opacity="0.1"/>
<path d="M878.938 -9C888.747 2.73154 899.237 13.6631 914.228 14.9419C930.667 16.3376 940.519 4.0717 949.633 -9H878.938Z" fill="#FFCA1A" fill-opacity="0.1"/>
<path d="M645.424 734.808C643.057 756.706 644.568 786.272 618.056 798.111C601.02 805.703 604.848 787.156 603.543 777.089C600.045 750.187 586.245 731.599 567.924 716.239C561.191 710.592 550.188 706.312 552.088 695.085C554.696 679.686 567.452 673.064 579.011 668.241C620.007 651.155 645.424 675.26 645.424 734.808Z" fill="#FFCA1A" fill-opacity="0.1"/>
<path d="M370.826 368.117C371.621 391.959 365.551 410.832 343.267 417.551C329.493 421.706 326.902 410.362 327.118 399.448C327.743 367.489 329.221 335.535 331.081 303.637C331.538 295.797 333.621 286.072 342.452 285.573C355.124 284.857 358.131 297.835 361.517 307.976C367.914 327.161 371.074 347.572 370.826 368.117Z" fill="#FFCA1A" fill-opacity="0.1"/>
<path d="M429.797 199.762C406.567 183.119 377.377 167.387 354.014 143.957C333.22 123.095 339.57 72.7527 360.458 62.8022C380.58 53.2401 393.443 71.7133 407.263 83.3981C423.229 96.899 439.698 102.23 459.802 98.3501C487.955 92.9136 495.25 104.417 486.414 140.465C479.139 170.141 464.008 192.421 429.797 199.762Z" fill="#FFCA1A" fill-opacity="0.1"/>
<path d="M470.47 1113.12C449.424 1111.76 446.831 1099.2 455.014 1081.14C466.211 1056.44 477.844 1031.99 489.914 1007.82C493.551 1000.52 498.55 991.424 507.097 993.699C517.155 996.376 520.709 1008.21 520.155 1017.95C518.694 1043.64 520.409 1070.73 505.547 1092.91C496.67 1106.16 483.965 1111.6 470.47 1113.12Z" fill="#FFCA1A" fill-opacity="0.1"/>
<path d="M872.077 608.818C872.75 572.47 877.843 535.068 852.839 504.995C841.737 491.643 822.009 490.341 815.382 471.453C806.949 447.429 821.986 415.061 846.395 410.515C873.319 405.496 875.605 434.337 880.685 454.063C893.692 504.665 889.275 560.096 912.115 608.12C920.301 625.347 932.074 640.661 934.815 660.711C936.384 672.217 933.362 683.47 922.585 687.307C903.355 694.154 891.62 681.05 882.148 664.331C872.557 647.426 871.188 628.342 872.077 608.818Z" fill="#FFCA1A" fill-opacity="0.1"/>
<path d="M1651.13 1158.9C1642.69 1155.3 1633.51 1154.66 1624.75 1153.47C1589.32 1148.65 1554.38 1137.56 1518.32 1140.56C1497.08 1142.31 1475.98 1146.22 1454.74 1148.22C1445.32 1149.1 1440.11 1141.66 1436.6 1132.08C1433 1122.26 1430.2 1108.97 1418.03 1111.33C1402.66 1114.3 1398.33 1129.06 1396.78 1144.96C1396.55 1147.25 1396.18 1149.54 1395.87 1151.83C1394.15 1150.47 1392.2 1149.39 1390.74 1147.74C1367.91 1121.9 1369.91 1086.19 1401.33 1070.84C1448.93 1047.6 1475.22 1003.92 1501.42 957.704C1512.01 939.032 1526.65 923.359 1547.8 934.968C1569.64 946.954 1565.55 971.757 1561.53 992.125C1550.75 1046.63 1564.11 1100.8 1594.48 1115.63C1621.87 1129.01 1651.67 1130.93 1680.12 1139.29C1693.7 1143.29 1706.62 1149.01 1717.67 1158.9H1771.16C1755.5 1149.13 1739.92 1139.13 1723.9 1130.22C1697.87 1115.76 1669.29 1111.63 1641.4 1104.42C1599.03 1093.46 1579.74 1044.11 1588.2 989.795C1599.3 918.469 1643.47 879.928 1688.4 840.336C1727.77 805.659 1762.85 767.369 1762.14 704.148C1761.7 664.299 1746.56 631.242 1722.61 603.527C1686.54 561.775 1691.13 515.891 1709.5 467.015C1727.79 418.375 1741.28 368.762 1724.57 314.957C1717.93 293.576 1702.84 283.045 1688.43 270.869C1663.34 249.646 1662.64 229.228 1690.11 212.474C1723.81 191.934 1739.2 161.294 1746.04 119.431C1754.56 67.1878 1792.61 50.5949 1837.04 75.1646C1868.28 92.4378 1893.55 121.136 1926.23 135.416C1946.34 144.205 1966.26 144.097 1985.99 135.416V101.34C1927.24 133.635 1886.18 91.8714 1844.57 52.8986C1819.31 29.2487 1791.85 18.7084 1758.78 27.0793C1747.63 29.8998 1727.54 33.967 1727.43 12.901C1727.32 -8.0248 1744.64 -6.55033 1758.18 -8.99708H1686.53C1688.41 26.6734 1702.4 59.1673 1707.41 94.0407C1714.37 142.453 1692.83 174.982 1662.26 202.442C1651.85 211.785 1641.24 221.058 1629.9 228.767C1617.83 236.977 1602 246.183 1593.58 227.149C1584.88 207.514 1602.14 198.877 1614.1 191.449C1637.19 177.119 1666.02 172.045 1673.58 135.317C1681.2 98.3327 1669.41 64.3674 1663.28 29.418C1661.04 16.7113 1659.6 3.82352 1657.89 -9H1630.45C1634.28 4.36367 1638.18 17.7011 1641.85 31.1231C1651.55 66.6477 1664.6 103.013 1638.92 136.462C1621.74 158.85 1596.53 171.829 1581.29 196.719C1560.41 230.822 1538.7 263.272 1503.39 279.471C1495.21 283.22 1483.58 287.004 1484.23 299.419C1484.94 312.876 1496.63 318.444 1505.93 324.309C1534.55 342.345 1567.06 336.864 1597.49 344.003C1613.07 347.661 1629.27 352.368 1634.97 372.202C1639.32 387.329 1631.04 399.726 1621.14 407.437C1601.61 422.692 1581.37 436.7 1560.5 449.4C1510.11 479.978 1465.41 517.337 1440.31 578.613C1433.58 595.028 1428.2 613.113 1437.23 630.757C1442.19 640.433 1451.38 644.091 1461.13 642.597C1479.04 639.852 1493.49 628.103 1508.23 617.297C1538.84 594.868 1568.67 567.933 1606.02 565.364C1645.9 562.622 1675.52 594.611 1707.34 616.395C1734.3 634.853 1750.68 663.517 1745.57 701.216C1736.16 770.671 1698.55 818.324 1649.51 855.402C1634 867.134 1616.08 877.943 1597.37 866.562C1580.13 856.05 1582.56 835.11 1585.9 817.559C1593.05 780.014 1580.99 757.684 1552.79 737.226C1516.58 710.948 1515.88 688.892 1545.35 659.219C1566.73 637.7 1591.58 615.256 1621.12 621.227C1666.42 630.383 1689.98 670.968 1690.59 727.351C1690.66 734.607 1689.27 744.312 1697.53 747.523C1700.14 748.542 1705.24 745.71 1707.4 742.852C1716.04 731.424 1719.45 717.368 1720.33 702.486C1722.77 660.974 1697.55 642.305 1671.02 626.123C1650.23 613.449 1631.39 591.72 1605.45 596.634C1571.18 603.142 1547.73 634.851 1517.25 650.836C1490.69 664.769 1486.88 684.016 1505.35 710.209C1513.67 722.017 1523.97 732.574 1534.83 741.316C1577 775.27 1581.94 799.019 1554.21 842.453C1539.84 864.953 1521.2 885.122 1511.42 909.961C1489 966.896 1457.99 1008.86 1404.74 1031.03C1347.91 1054.7 1331.64 1114.81 1365.2 1158.9H1651.13ZM1486.31 604.146C1478.87 612.585 1466.25 624.521 1458.05 612.205C1446.27 594.511 1461.89 580.114 1471.41 568.324C1511.92 518.131 1563.4 484.13 1611.3 444.784C1630.23 429.233 1647.84 410.489 1653.43 383.096C1658.56 357.986 1640.62 349.837 1625.62 340.403C1621.15 337.591 1613.54 336.739 1614.33 329.798C1614.62 327.279 1624.02 324.692 1629.3 324.598C1658.03 324.09 1676.4 344.015 1676.4 384.079C1673.86 422.649 1647.38 453.692 1616.3 478.189C1569.18 515.31 1526.81 558.222 1486.31 604.146ZM1566.29 557.279C1564.85 557.796 1563.3 557.915 1561.8 558.219C1562.33 556.379 1562.55 554.298 1563.45 552.741C1582.66 519.518 1614.34 503.777 1640.88 481.126C1680.56 447.257 1704.25 382.377 1687.34 344.059C1674.67 315.36 1653.28 303.474 1622.06 303.527C1606.31 303.316 1587.97 310.826 1569.34 316.919C1561.44 319.512 1550.84 324.96 1546.41 314.362C1542.09 304.029 1552.05 297.848 1559.09 293.538C1614.04 259.885 1698.24 268.811 1715.55 350.92C1725.84 399.735 1706.59 440.582 1680.82 476.854C1651.04 518.718 1610.3 541.46 1566.29 557.264V557.279Z" fill="#FFCA1A" fill-opacity="0.1"/>
<path d="M1600.67 -9H1580.03C1592.96 9.00898 1602.99 28.5392 1605.6 52.6358C1608.85 82.642 1603.2 110.327 1584.23 130.757C1550.55 167.026 1529.26 216.136 1491.56 247.803C1463.34 271.506 1432.98 265.348 1404.41 250.107C1370.46 232.004 1338.29 235.33 1305.69 252.618C1303.65 253.695 1301.29 253.949 1299.08 254.589C1299.67 251.961 1299.95 249.176 1300.91 246.738C1312.25 217.718 1356.78 206.34 1390.79 223.12C1424.87 239.929 1458.98 261.83 1494.88 227.791C1519.36 204.565 1533.65 172.077 1552.67 143.881C1567.13 122.447 1587.22 104.382 1588.27 74.6536C1589.68 35.1524 1571.25 9.47614 1543.88 -8.98832H1406.51C1419.49 -3.83497 1432.42 1.52276 1445.6 5.82354C1470.57 13.9988 1495.38 1.25122 1520.34 3.82352C1544.7 6.34034 1562.72 21.2544 1574.43 45.5C1581.61 60.3906 1581.39 75.8419 1572.66 90.5487C1569.24 96.321 1564.79 99.8919 1558.95 98.8758C1551.99 97.6758 1549.14 90.9925 1547.62 83.8888C1537.31 35.713 1525.27 25.5698 1483.7 38.8196C1456.55 47.4708 1436.42 31.1786 1414.54 20.9391C1366.99 -1.32107 1320.01 33.5378 1319.8 92.2392C1319.75 106.4 1318.95 120.596 1317.79 134.698C1316.99 144.526 1315.32 155.817 1303.59 153.916C1292.87 152.164 1288.91 140.777 1289.24 130.485C1291.07 73.5616 1300.56 7.43232 1358.67 -9H1315.51C1285.51 34.6151 1272.68 84.6625 1277.38 140.033C1279.14 160.728 1289.07 180.091 1310.31 176.503C1333.33 172.614 1330.29 147.335 1332.73 128.327C1337.14 93.9152 1332.87 55.0242 1366.73 35.7334C1389.08 22.9946 1410.43 31.745 1428.59 47.7365C1444.24 61.5264 1459.3 66.6652 1479.58 64.2155C1524.41 58.7994 1540.48 84.4114 1529.62 138.631C1519.69 188.141 1484.73 230.729 1453.89 229.966C1430.86 229.383 1413.96 210.775 1393.86 201.534C1354.67 183.513 1323.11 203.02 1293.39 230.148C1248.25 271.357 1199.92 304.543 1140.78 310.47C1135.29 311.019 1128.77 310.084 1127.51 303.1C1126.11 295.287 1132.91 293.109 1137.93 291.074C1165.5 279.868 1194.39 272.855 1220.15 255.914C1258.7 230.55 1263.01 191.878 1256.51 145.6C1248.84 91.0246 1259.6 39.1174 1283.45 -9H1260.76C1242.47 43.4474 1245.18 99.0306 1242.89 153.945C1241.57 185.91 1235.56 216.612 1215.35 240.46C1173.55 289.777 1110.71 287.704 1064.28 236.971C1057.97 230.072 1049.66 216.139 1040.41 225.055C1031.03 234.077 1040.39 245.552 1046.09 254.612C1049.99 260.802 1053.84 267.111 1058.34 272.691C1082.26 302.303 1103.67 337.004 1145.31 332.368C1170.59 329.553 1190.32 311.562 1212.11 299.395C1259.3 273.062 1306.91 307.033 1306.91 367.501C1306.91 442.282 1240.28 495.012 1173.1 478.86C1126.62 467.68 1085.44 440.267 1039.3 429.157C1013.32 422.903 982.048 443.312 975.584 473.158C970.159 498.16 985.295 519.313 1013.13 527.941C1052.62 540.204 1089.43 557.43 1115.43 597.212C1142.77 639.052 1152.54 640.483 1191.18 609.56C1223.29 583.866 1256.28 572.187 1294.99 588.424C1330.39 603.27 1345.09 592.362 1345.43 549.121C1345.87 493.619 1368.11 457.972 1412.18 438.311C1450.09 421.4 1469.94 380.263 1460.43 335.746C1455.35 312 1438.79 302.7 1419.45 307.769C1402.19 312.289 1408.53 330.044 1410.94 343.045C1417.51 378.342 1415.21 409.878 1387.02 432.784C1369.19 447.277 1352.31 462.907 1343.84 487.354C1337.4 505.982 1330.53 524.528 1318.3 539.237C1291.3 571.699 1254.83 566.239 1220.95 570.163C1148.74 578.523 1089.05 539.232 1029.18 501.549C1017.52 494.209 1003.58 483.698 1012.92 465.993C1021.78 449.201 1037.21 454.834 1049.34 463.204C1089.77 491.103 1129.04 520.478 1176.88 531.234C1217.75 540.414 1259.14 528.823 1278.11 499.062C1314.61 441.803 1324.08 377.017 1322.1 308.029C1320.89 265.716 1342.05 246.615 1376.97 260.075C1432.89 281.631 1483.9 280.139 1526.15 226.378C1548.04 198.547 1565.14 165.674 1591.9 142.999C1615.28 123.183 1626.17 97.8831 1621.62 63.9469C1618.18 38.1247 1608.88 14.8251 1600.67 -9Z" fill="#FFCA1A" fill-opacity="0.1"/>
<path d="M1883.78 1093.55C1834.5 1043.19 1808.46 992.008 1849.15 923.35C1871.13 886.27 1920.3 873.607 1968.67 892.369C1974.33 894.565 1980.18 896.141 1985.99 897.835V835.504C1962.25 840.523 1938.42 845.057 1914.82 850.879C1852.79 866.19 1805.28 918.617 1800.3 988.16C1796.2 1045.32 1829.17 1082.4 1868.58 1111.89C1879.57 1120.12 1895.46 1128.39 1888.94 1148.42C1886.91 1154.68 1883.15 1157.69 1878.7 1158.89H1912.39C1918.02 1129.33 1900.55 1110.69 1883.78 1093.55Z" fill="#FFCA1A" fill-opacity="0.1"/>
<path d="M1671.9 1065.2C1720.54 1084.51 1760.8 1121.81 1806.9 1146.37C1815.12 1150.75 1823.44 1154.83 1831.77 1158.92H1866.13C1864.35 1158.63 1862.62 1158.24 1860.95 1157.86C1819.46 1148.48 1786.59 1122.54 1757.61 1087.76C1711.13 1031.99 1721.23 909.599 1776.12 865.508C1806.61 841.014 1836.26 815.034 1865.34 788.368C1873.92 780.508 1881.89 764.718 1871.82 754.995C1861.38 744.928 1857.01 762.663 1850.8 769.974C1839.48 783.297 1829.17 798.43 1816.11 808.999C1765.69 849.797 1720.26 894.305 1707.78 969.001C1705.58 982.193 1700.58 995.904 1685.98 991.428C1674.67 987.962 1674.02 974.718 1676.07 963.311C1687.25 900.886 1723.35 858.868 1764.41 820.763C1787.83 799.014 1816.32 782.336 1827.5 747.214C1836.73 718.251 1823.6 690.063 1822.43 661.33C1821.47 637.563 1825.44 611.289 1811.96 591.192C1801.91 576.211 1784.34 567.767 1774.76 552.54C1749.05 511.664 1757.84 465.564 1767.5 421.908C1778.13 373.84 1787.61 326.961 1777.6 276.887C1768.25 230.127 1768.82 183.242 1787.52 138.71C1790.77 130.964 1795.84 123.761 1804.33 125.825C1813.09 127.96 1814.23 136.92 1814.19 145.7C1814.04 181.832 1804.61 217.041 1807.84 253.731C1810.88 288.184 1830.89 313.548 1853.71 307.311C1893.37 296.476 1937.13 320.222 1951.25 363.817C1965.27 407.079 1957.44 454.329 1965.96 498.916C1969.98 519.938 1972.68 541.545 1985.98 557.854V489.24C1978.61 466.174 1976.84 441.695 1976.4 417.622C1975.05 341.817 1945.2 292.908 1881.49 269.883C1840.71 255.153 1826.85 223.637 1829.39 160.138C1830.29 137.557 1836.75 110.92 1810.28 104.634C1785.81 98.8236 1779.27 124.941 1772.03 144.944C1761.81 173.207 1746.29 196.565 1728.21 218.834C1709.89 241.418 1729.21 257.842 1739.37 274.324C1773.05 328.961 1768.02 388.194 1745.95 442.697C1720.45 505.649 1731.45 552.409 1771.04 600.81C1811.12 649.82 1816.14 726.63 1785.82 773.536C1762.15 810.161 1725.23 831.107 1697.63 863.423C1664.75 901.911 1626.06 937.115 1620.04 995.317C1615.75 1036.94 1643.29 1053.84 1671.9 1065.2Z" fill="#FFCA1A" fill-opacity="0.1"/>
<path d="M1596.08 379.994C1595.58 376.987 1590.7 373.571 1587.4 372.812C1559.61 366.534 1530.69 367.644 1503.9 354.482C1494.36 349.795 1489.55 357.825 1488.79 367.658C1485.07 415.423 1466.66 449.543 1425.42 465.914C1401.33 475.473 1377.39 489.391 1371.72 521.389C1367.76 543.766 1369.27 567.492 1368.91 590.628C1368.44 620.173 1355.04 634.237 1330.28 628.745C1308.37 623.884 1286.91 614.012 1264.92 612.394C1217.64 608.891 1188.85 645.747 1162.45 683.481C1149.94 701.356 1152.09 721.479 1167.93 737.085C1178.4 747.395 1189.6 743.64 1199.54 735.479C1211.41 725.739 1221.44 711.666 1234.43 705.333C1301.92 672.404 1367.46 688.168 1427.67 727.482C1481.3 762.49 1492.98 810.143 1468.56 857.151C1445.96 900.655 1407.1 913.21 1369.04 927.89C1318.16 947.508 1273.52 974.919 1259.76 1042.4C1252.34 1078.81 1236.39 1109.44 1201.04 1115.77C1169.09 1121.5 1148.85 1097.14 1128.84 1073.12C1111.92 1052.82 1096.23 1029.95 1072.29 1019.85C1030.51 1002.24 999.491 1026.28 969.996 1055.06V1097C978.742 1082.32 986.793 1066.98 999.968 1056.54C1038.99 1025.59 1072.33 1032.92 1101.79 1076.87C1121.76 1106.68 1143.22 1135.17 1168.85 1158.92H1264.73C1250.52 1090.2 1277.27 1037.16 1318.02 990.887C1344.04 961.339 1380.12 950.472 1411.65 931.117C1453.45 905.449 1488.71 872.485 1498.05 815.063C1504.89 772.954 1478.91 752.457 1454.25 731.211C1436.41 715.832 1413.61 705.126 1409.68 675.224C1409.05 670.471 1411.3 665.216 1412.22 660.194C1414.28 661.329 1416.88 661.907 1418.29 663.697C1421.53 667.82 1424.03 672.699 1427.11 676.997C1446.58 704.127 1471.49 724.174 1494.99 746.057C1527.13 775.973 1526.15 812.143 1500.47 864.126C1466.88 932.156 1410.98 965.999 1355.2 1001.1C1314.2 1026.91 1276.03 1099.71 1298.56 1158.9H1330.39C1301.72 1090.26 1333.62 1017.99 1392.55 994.983C1418.48 984.858 1447.02 979.801 1464.78 951.368C1485.46 918.276 1496.62 878.374 1521.47 848.132C1533.23 833.825 1545.81 818.523 1543.77 796.549C1541.08 767.515 1518.95 755.769 1502.52 739.351C1472.12 708.985 1435.15 683.838 1422.4 637.23C1405.21 574.411 1434.31 526.443 1468.7 482.591C1501.22 441.131 1547.12 423.32 1587.37 395.527C1592.29 392.129 1597.32 387.224 1596.08 379.994ZM1430.89 516.554C1414.27 551.15 1408.38 588.85 1403.36 627.428C1397.41 673.157 1367.87 694.48 1328.68 675.975C1276.75 651.449 1233.55 658.223 1194.93 705.172C1190.57 710.483 1181.47 718.238 1177.7 710.545C1171.17 697.248 1181.3 685.978 1188.53 676.384C1225.37 627.443 1268.76 619.381 1320.34 644.795C1340.15 654.556 1367.78 668.153 1379.89 630.605C1386.07 611.425 1385.44 589.334 1387.89 568.557C1388.94 543.702 1387.58 517.634 1405.01 498.448C1412.39 490.32 1422.34 482.442 1431.86 489.508C1441.19 496.428 1434.99 508.022 1430.89 516.554Z" fill="#FFCA1A" fill-opacity="0.1"/>
<path d="M1446.14 812.119C1439.32 804.569 1430.45 824.887 1423.35 833.623C1408.06 852.42 1390.37 863.294 1368.31 852.788C1347.62 842.94 1327.53 837.138 1305.62 846.87C1260.5 866.899 1221.86 902.891 1172.35 912.967C1130.01 921.583 1081.42 894.815 1068.25 847.787C1057.92 810.922 1066.33 771.581 1058.3 734.209C1045.45 674.482 1021.3 624.876 969.996 599.182V626.92C1008.77 648.789 1026.38 689.344 1036.14 734.425C1049.33 795.401 1056.92 857.988 1039.71 919.335C1029.15 956.974 1001.38 976.518 969.996 988.825V1012.74C1042.06 950.918 1098.85 971.231 1152.23 1041.94C1180.43 1079.28 1209.79 1079.42 1225.61 1033.6C1249.28 965.038 1285.95 915.224 1349.32 894.357C1379.66 884.368 1413.77 883.723 1436.76 853.305C1445.76 841.384 1456.97 824.108 1446.14 812.119ZM1331.71 881.002C1290.05 906.164 1257.7 946.424 1217.41 973.689C1203.04 983.418 1187.19 988.209 1168.39 988.323C1141.29 987.129 1115.19 975.207 1091.3 956.763C1086.2 952.822 1079.11 946.898 1083.25 937.89C1088.72 925.992 1098.85 927.315 1107.49 931.391C1171.79 961.73 1222.3 926.719 1272.34 886.911C1289.19 873.48 1306.68 859.977 1329.09 862.108C1333.84 862.561 1338.15 865.054 1338.12 869.463C1338.09 873.416 1334.88 879.089 1331.71 881.002Z" fill="#FFCA1A" fill-opacity="0.1"/>
<path d="M1400.38 743.783C1351.78 719.944 1300.42 728.554 1249.92 733.065C1239.64 733.982 1228.84 744.922 1230.86 759.185C1232.19 768.627 1243.3 767.17 1249.82 765.354C1286.39 755.159 1323.22 748.817 1360.76 755.646C1371.88 757.67 1389.01 756.163 1388.97 774.376C1388.93 793.337 1372.7 791.895 1361.05 790.712C1326.61 787.209 1292.67 782.89 1258.59 796.464C1187.12 824.929 1145.1 803.907 1127.34 719.383C1106.37 619.545 1053.24 567.556 969.996 549.039V564.967C970.561 565.06 971.119 565.204 971.665 565.396C1041.83 591.089 1097.84 686.367 1101.4 784.239C1102.54 815.536 1107.66 846.818 1133.88 864.065C1163.88 883.797 1191.99 868.889 1217.3 850.395C1264.2 816.138 1309.73 783.664 1369.43 811.7C1385.62 819.291 1406.49 810.502 1415.23 788.771C1422.76 770.061 1415.41 751.156 1400.38 743.783Z" fill="#FFCA1A" fill-opacity="0.1"/>
<path d="M1271.82 329.53C1259.03 308.111 1232.21 305.477 1208.87 324.517C1189.82 340.044 1173.93 361.539 1148.27 363.457C1108.02 366.465 1082.29 337.912 1056.83 308.397C1022.2 268.271 1012.08 265.882 969.996 290.616V329.69C1009.91 306.916 1039.59 336.114 1071.39 357.469C1127.87 395.356 1164.27 390.845 1219.4 341.913C1227.1 335.077 1237.57 325.521 1245.48 335.889C1255.05 348.444 1246.87 362.713 1238.39 372.304C1200.34 415.332 1154.11 416.436 1105.38 405.735C1072.67 398.553 1046.54 373.23 1014.65 364.275C998.266 359.656 983.936 366.062 969.996 374.465V410.36C985.564 395.782 1002.93 383.91 1023.35 391.11C1055.97 402.614 1087 420.308 1119.82 430.79C1165.3 445.324 1211.73 456.483 1255.2 420.965C1279.62 401.017 1288.04 356.698 1271.82 329.53Z" fill="#FFCA1A" fill-opacity="0.1"/>
<path d="M1985.99 603.124C1979.49 594.984 1972.62 587.118 1967.53 577.942C1940.74 529.623 1939.95 473.862 1935.19 419.484C1930.88 369.995 1894.85 335.62 1853.15 342.736C1817.71 348.783 1791.53 389.253 1790.02 437.779C1789.05 468.755 1783.29 500.215 1800.36 528.081C1809.56 543.092 1829.04 543.509 1837.1 560.242C1848.8 584.532 1841.53 611.13 1843.01 636.646C1844.97 670.118 1852.94 699.978 1878.41 719.657C1915.94 748.668 1941.03 744.808 1985.98 702.796L1985.99 603.124ZM1943.06 721.12C1915.63 729.637 1894.5 715.666 1878.28 691.184C1863.85 669.4 1861.41 643.364 1861.2 616.926C1861.1 587.013 1868.79 554.274 1844.44 531.702C1830.58 518.855 1810.64 516.09 1804.42 491.252C1791.8 440.79 1815.35 379.799 1854.03 367.536C1884.32 357.933 1912.36 386.079 1922.18 434.576C1932.41 485.138 1927.66 539.585 1951.17 586.61C1962.51 609.271 1978.08 629.782 1978.84 657.543C1979.67 687.861 1970.72 712.533 1943.06 721.12Z" fill="#FFCA1A" fill-opacity="0.1"/>
<path d="M1177.38 -9H1134.59C1126.38 8.74913 1117.26 26.0661 1110.68 44.5773C1099.47 76.0639 1107.97 101.279 1132.58 120.024C1141.98 127.186 1153.52 133.454 1153.75 149.066C1153.81 152.95 1149.93 159.388 1146.79 160.433C1132.31 165.274 1120.51 156.929 1110.87 146.065C1071.92 102.152 1065.58 47.7861 1092.2 -6.87151C1092.53 -7.55909 1092.82 -8.27004 1093.07 -9H1073.78C1054.44 38.6853 1063.81 115.863 1094.88 154.187C1110.2 173.102 1128.34 188.331 1152.16 176.818C1172.59 166.953 1173.69 143.971 1172.85 122.625C1171.1 78.5194 1168.52 34.5042 1177.38 -9Z" fill="#FFCA1A" fill-opacity="0.1"/>
<path d="M1985.99 174.001C1953.57 193.288 1926.71 176.818 1899.27 155.066C1887.91 146.056 1872.72 119.104 1858.75 145.799C1847.89 166.561 1853.75 193.017 1868.8 212.889C1888.48 238.86 1918.12 245.695 1942.7 262.294C1959.37 273.555 1973.18 288.218 1985.99 304.338V174.001Z" fill="#FFCA1A" fill-opacity="0.1"/>
<path d="M1230.99 -9H1211.04C1209.98 -5.45543 1208.88 -1.92254 1208.08 1.69795C1197.11 51.6957 1206.05 103.244 1199.15 153.606C1194.43 188.016 1171.61 220.626 1144.38 226.11C1119.68 231.073 1098.68 219.219 1085.26 195.765C1049.69 133.592 1032.61 65.7455 1041.84 -9H1020.8C1020.08 -4.78973 1019.19 -0.564857 1019.45 3.5549C1024.24 78.1602 1043.79 149.174 1077.73 211.076C1105.22 261.214 1155.16 276.291 1195.29 220.156C1221.63 183.309 1224.89 139.615 1225.21 94.4787C1225.46 59.906 1221.36 24.834 1230.99 -9Z" fill="#FFCA1A" fill-opacity="0.1"/>
<path d="M1808.76 1093.31C1758.14 1022.01 1761.84 944.635 1817.77 879.139C1864.25 824.71 1925.81 812.277 1985.99 795.544V745.295C1924.78 768.026 1877.04 817.101 1824.48 856.619C1735.63 923.429 1734 1049.51 1820.61 1117.22C1823.46 1119.45 1826.69 1121.02 1829.76 1122.92C1827.77 1119.97 1825.84 1116.96 1823.78 1114.07C1818.8 1107.12 1813.71 1100.28 1808.76 1093.31Z" fill="#FFCA1A" fill-opacity="0.1"/>
<path d="M1888.2 1049.65C1918.75 1077.58 1946.11 1108.9 1941.66 1158.9H1969.39C1962.92 1106.62 1937.09 1068.47 1901.31 1036.68C1883.03 1020.42 1870.99 998.396 1877.9 970.399C1884.82 942.402 1903.48 931.041 1928.04 932.442C1950.36 933.718 1967.37 949.616 1986 961.038V932.956C1975.77 928.67 1965.35 924.848 1955.6 919.414C1922.07 900.711 1884.42 910.538 1867.3 943.269C1849.08 978.075 1859.24 1023.18 1888.2 1049.65Z" fill="#FFCA1A" fill-opacity="0.1"/>
<path d="M1009.26 747.044C1004.3 716.769 994.086 688.527 969.996 670.982V712.028C990.316 742.863 992.757 779.45 993.247 816.467C993.585 842.041 987.037 864.564 969.996 881.577V943.94C985.119 937.371 995.234 924.028 1002.17 907.978C1024.74 855.729 1018.09 801.051 1009.26 747.044Z" fill="#FFCA1A" fill-opacity="0.1"/>
<path d="M1024.96 127.414C1015.48 81.9123 992.46 40.0169 996.054 -8.99976H980.9C976.854 24.9248 990.062 54.7762 999.079 85.5241C1014.27 137.315 1004.41 182.296 969.996 216.095V251.369C1007.22 242.133 1035.36 177.338 1024.96 127.414Z" fill="#FFCA1A" fill-opacity="0.1"/>
<path d="M1004.43 1158.9C1010.91 1128.24 1025.04 1105.03 1056.02 1106.59C1083.09 1107.95 1094.88 1137.51 1112.15 1156.44C1112.86 1157.22 1113.52 1158.05 1114.16 1158.9H1132.19C1124.27 1147.51 1116.52 1135.97 1108.06 1125.15C1090.57 1102.84 1076.74 1073.2 1047.08 1070.72C1007.61 1067.42 990.766 1113.69 981.485 1158.9H1004.43Z" fill="#FFCA1A" fill-opacity="0.1"/>
<path d="M1985.99 14.6879C1973.34 24.5712 1962.11 37.1028 1946.59 41.6401C1913.56 51.3015 1889.74 32.0049 1867.01 8.77541C1861.05 2.67898 1854.86 -3.12839 1848.72 -9H1795.95C1820.18 -4.67002 1840.29 10.6645 1859.64 27.8501C1897.91 61.8213 1936.4 93.8188 1985.99 59.4155V14.6879Z" fill="#FFCA1A" fill-opacity="0.1"/>
<path d="M1894.93 -9C1904.74 2.73154 1915.23 13.6631 1930.22 14.9419C1946.66 16.3376 1956.52 4.0717 1965.63 -9H1894.93Z" fill="#FFCA1A" fill-opacity="0.1"/>
<path d="M979.973 99.9386C978.32 85.4274 976.925 70.3557 969.996 57.4475V171.939C970.118 171.806 970.225 171.654 970.314 171.49C981.876 149.16 982.785 124.572 979.973 99.9386Z" fill="#FFCA1A" fill-opacity="0.1"/>
<path d="M1661.42 734.808C1659.05 756.706 1660.56 786.272 1634.05 798.111C1617.02 805.703 1620.84 787.156 1619.54 777.089C1616.04 750.187 1602.24 731.599 1583.92 716.239C1577.19 710.592 1566.18 706.312 1568.08 695.085C1570.69 679.686 1583.45 673.064 1595.01 668.241C1636 651.155 1661.42 675.26 1661.42 734.808Z" fill="#FFCA1A" fill-opacity="0.1"/>
<path d="M1386.82 368.117C1387.62 391.959 1381.55 410.832 1359.26 417.551C1345.49 421.706 1342.9 410.362 1343.11 399.448C1343.74 367.489 1345.22 335.535 1347.08 303.637C1347.53 295.797 1349.62 286.072 1358.45 285.573C1371.12 284.857 1374.13 297.835 1377.51 307.976C1383.91 327.161 1387.07 347.572 1386.82 368.117Z" fill="#FFCA1A" fill-opacity="0.1"/>
<path d="M1445.79 199.762C1422.56 183.119 1393.37 167.387 1370.01 143.957C1349.22 123.095 1355.57 72.7527 1376.45 62.8022C1396.58 53.2401 1409.44 71.7133 1423.26 83.3981C1439.23 96.899 1455.69 102.23 1475.8 98.3501C1503.95 92.9136 1511.25 104.417 1502.41 140.465C1495.14 170.141 1480 192.421 1445.79 199.762Z" fill="#FFCA1A" fill-opacity="0.1"/>
<path d="M1486.47 1113.12C1465.42 1111.76 1462.83 1099.2 1471.01 1081.14C1482.21 1056.44 1493.84 1031.99 1505.91 1007.82C1509.55 1000.52 1514.55 991.424 1523.09 993.699C1533.15 996.376 1536.7 1008.21 1536.15 1017.95C1534.69 1043.64 1536.4 1070.73 1521.54 1092.91C1512.67 1106.16 1499.96 1111.6 1486.47 1113.12Z" fill="#FFCA1A" fill-opacity="0.1"/>
<path d="M1888.07 608.818C1888.75 572.47 1893.84 535.068 1868.84 504.995C1857.73 491.643 1838.01 490.341 1831.38 471.453C1822.95 447.429 1837.98 415.061 1862.39 410.515C1889.32 405.496 1891.6 434.337 1896.68 454.063C1909.69 504.665 1905.27 560.096 1928.11 608.12C1936.3 625.347 1948.07 640.661 1950.81 660.711C1952.38 672.217 1949.36 683.47 1938.58 687.307C1919.35 694.154 1907.62 681.05 1898.14 664.331C1888.55 647.426 1887.18 628.342 1888.07 608.818Z" fill="#FFCA1A" fill-opacity="0.1"/>
</svg>
